<svg xmlns="http://www.w3.org/2000/svg" xmlns:xlink="http://www.w3.org/1999/xlink" version="1.1" width="753.23" height="753.23" style="" xml:space="preserve"><rect id="backgroundrect" width="100%" height="100%" x="0" y="0" fill="none" stroke="none"/>
















<g class="currentLayer" style=""><title>Layer 1</title><g id="svg_1" class="selected" fill="#b80404" fill-opacity="1">
	<g id="_x34__18_" fill="#b80404" fill-opacity="1">
		<g id="svg_2" fill="#b80404" fill-opacity="1">
			<path d="M635.538,94.154h-141.23V47.077C494.308,21.067,473.24,0,447.23,0H306c-26.01,0-47.077,21.067-47.077,47.077v47.077     h-141.23c-26.01,0-47.077,21.067-47.077,47.077v47.077c0,25.986,21.067,47.053,47.03,47.077h517.917     c25.986-0.024,47.054-21.091,47.054-47.077V141.23C682.615,115.221,661.548,94.154,635.538,94.154z M447.23,94.154H306V70.615     c0-12.993,10.545-23.539,23.538-23.539h94.154c12.993,0,23.538,10.545,23.538,23.539V94.154z M117.692,659.077     c0,51.996,42.157,94.153,94.154,94.153h329.539c51.996,0,94.153-42.157,94.153-94.153V282.461H117.692V659.077z M470.77,353.077     c0-12.993,10.545-23.539,23.538-23.539s23.538,10.545,23.538,23.539v282.461c0,12.993-10.545,23.539-23.538,23.539     s-23.538-10.546-23.538-23.539V353.077z M353.077,353.077c0-12.993,10.545-23.539,23.539-23.539s23.538,10.545,23.538,23.539     v282.461c0,12.993-10.545,23.539-23.538,23.539s-23.539-10.546-23.539-23.539V353.077z M235.384,353.077     c0-12.993,10.545-23.539,23.539-23.539s23.539,10.545,23.539,23.539v282.461c0,12.993-10.545,23.539-23.539,23.539     s-23.539-10.546-23.539-23.539V353.077z" id="svg_3" fill="#b80404" fill-opacity="1"/>
		</g>
	</g>
</g><g id="svg_4">
</g><g id="svg_5">
</g><g id="svg_6">
</g><g id="svg_7">
</g><g id="svg_8">
</g><g id="svg_9">
</g><g id="svg_10">
</g><g id="svg_11">
</g><g id="svg_12">
</g><g id="svg_13">
</g><g id="svg_14">
</g><g id="svg_15">
</g><g id="svg_16">
</g><g id="svg_17">
</g><g id="svg_18">
</g></g></svg>